<svg width="51" height="50" viewBox="0 0 51 50" fill="none" xmlns="http://www.w3.org/2000/svg">
<path fill-rule="evenodd" clip-rule="evenodd" d="M20.5296 0.164541C18.0302 0.839412 16.3155 3.06518 16.3062 5.64684C16.3024 6.72168 16.4768 7.43172 16.9811 8.39518C17.2723 8.95135 17.8592 9.5805 21.127 12.8403C23.2206 14.9287 24.9663 16.6488 25.0064 16.6625C25.0464 16.6764 26.8175 14.9399 28.9422 12.8036C33.0966 8.62661 33.2253 8.46874 33.5718 7.12515C33.7788 6.3222 33.7768 4.8903 33.5676 4.18143C33.0095 2.29066 31.6196 0.858853 29.7154 0.212997C29.314 0.076909 28.8939 0.0307973 28.0546 0.0307973C26.8625 0.0307973 26.2821 0.16161 25.4413 0.619796L25.0261 0.846055L24.6009 0.608365C23.5522 0.022298 21.7742 -0.171527 20.5296 0.164541ZM23.1265 3.19677C23.3527 3.29691 23.8737 3.69785 24.2841 4.08765L25.0304 4.79651L25.7522 4.09654C26.6299 3.24552 27.1777 2.97677 28.0546 2.96719C29.6656 2.94961 30.8958 4.27229 30.7665 5.88297C30.6843 6.90749 30.5039 7.14332 27.6811 9.91823C26.2477 11.3272 25.0469 12.4702 25.0126 12.4583C24.9784 12.4464 23.7835 11.2936 22.3573 9.89644C19.4764 7.07435 19.265 6.79026 19.2631 5.7375C19.2595 3.68778 21.2609 2.37155 23.1265 3.19677ZM12.0328 15.8493C6.17398 17.0771 2.75322 23.0341 4.69499 28.6276C5.19968 30.0814 6.40737 31.8624 7.4823 32.738C7.78603 32.9855 8.02186 33.2213 8.00653 33.2622C7.99109 33.3031 7.62679 33.5062 7.19693 33.7135C3.78497 35.3593 1.27852 38.3091 0.331476 41.7937C0.0857755 42.6978 0.078253 42.8158 0.0396638 46.3609L0 50H25.0267H50.0535L50.0121 46.7028C49.9747 43.731 49.9504 43.3317 49.7648 42.6558C48.9709 39.7624 47.1384 37.4644 44.3472 35.8617C43.8587 35.5812 43.4112 35.3345 43.3526 35.3134C43.2941 35.2923 43.5567 34.9503 43.9363 34.5534C45.572 32.8429 46.2971 31.1736 46.3927 28.8981C46.5017 26.309 45.6954 24.2004 43.9143 22.4157C42.2422 20.74 40.1794 19.896 37.7636 19.899C35.7405 19.9014 34.0144 20.5081 32.4281 21.7743C31.1409 22.8018 30.1635 24.2209 29.6073 25.8695C29.3325 26.6844 29.2887 26.9603 29.2485 28.1303C29.2129 29.163 29.2405 29.6356 29.3708 30.2307C29.736 31.898 30.4887 33.2909 31.6994 34.5398C32.077 34.9293 32.3676 35.2647 32.3452 35.2852C32.3227 35.3056 32.0625 35.4425 31.767 35.5892C30.1544 36.3901 28.2525 38.0331 27.3838 39.3758C27.149 39.7384 26.9292 40.0347 26.8953 40.034C26.8613 40.0334 26.6437 39.6684 26.4119 39.2228C25.2497 36.9895 23.1156 34.9666 20.6485 33.7597L19.6415 33.267L20.0135 32.9706C22.5008 30.9895 23.9066 27.5999 23.5538 24.4353C23.1016 20.3804 20.2813 17.0632 16.3802 15.9976C15.3849 15.7258 13.0092 15.6448 12.0328 15.8493ZM15.2364 18.7926C18.8828 19.5307 21.2663 23.1928 20.4885 26.8624C19.969 29.3137 17.9351 31.3969 15.4825 31.9898C14.6053 32.2018 13.0555 32.1983 12.2407 31.9824C10.2818 31.4632 8.68404 30.1596 7.82208 28.3773C7.28564 27.2679 7.11341 26.3868 7.17251 25.054C7.25428 23.2116 7.79922 21.9976 9.15814 20.6312C9.80566 19.9801 10.112 19.7573 10.8678 19.3878C12.3322 18.6718 13.7114 18.4839 15.2364 18.7926ZM39.5896 23.1222C41.7206 23.8006 43.263 25.7723 43.4569 28.0656C43.7136 31.1016 41.3371 33.8801 38.261 34.1404C35.5223 34.3723 32.9411 32.46 32.2971 29.7221C32.0969 28.8712 32.1561 27.6397 32.4402 26.7418C33.0417 24.8408 34.8208 23.2908 36.8471 22.9025C37.3976 22.797 38.9617 22.9223 39.5896 23.1222ZM15.7293 35.3042C19.3772 35.8459 22.4574 37.9098 23.8834 40.7679C24.5858 42.1757 24.6674 42.5878 24.7106 44.9443L24.7496 47.0692H13.8351H2.92047L2.97352 45.1397C3.01445 43.646 3.07092 43.0427 3.22322 42.4685C4.15679 38.9475 7.33312 36.2123 11.4276 35.4034C12.8737 35.1178 14.2586 35.0858 15.7293 35.3042ZM38.9638 37.2088C42.8343 37.6404 45.8951 39.9665 46.8169 43.1771C46.9718 43.7164 47.0363 44.2875 47.0776 45.4816L47.1324 47.0692H37.8377H28.5431L28.5465 45.8236C28.5519 43.8545 28.8439 42.6488 29.6319 41.3424C30.9408 39.1727 33.6695 37.5508 36.582 37.2117C37.6036 37.0928 37.9202 37.0924 38.9638 37.2088Z" fill="url(#paint0_linear_1_185)"/>
<defs>
<linearGradient id="paint0_linear_1_185" x1="25.0268" y1="0" x2="25.0268" y2="50" gradientUnits="userSpaceOnUse">
<stop stop-color="#2F82FE"/>
<stop offset="1" stop-color="#1551AA"/>
</linearGradient>
</defs>
</svg>
