<svg width="20" height="20" viewBox="0 0 20 20" fill="none" xmlns="http://www.w3.org/2000/svg">
<path fill-rule="evenodd" clip-rule="evenodd" d="M10 0C7.28333 0 6.94417 0.0125 5.8775 0.06C4.8125 0.11 4.0875 0.2775 3.45 0.525C2.7925 0.78 2.23417 1.1225 1.67833 1.67833C1.1225 2.23417 0.779167 2.79167 0.525 3.45C0.2775 4.0875 0.109167 4.8125 0.06 5.8775C0.01 6.94417 0 7.28333 0 10C0 12.7167 0.0125 13.0558 0.06 14.1225C0.11 15.1867 0.2775 15.9126 0.525 16.55C0.78 17.2067 1.1225 17.7659 1.67833 18.3217C2.23417 18.8767 2.79167 19.2209 3.45 19.475C4.08833 19.7217 4.81333 19.8909 5.8775 19.94C6.94417 19.99 7.28333 20 10 20C12.7167 20 13.0558 19.9874 14.1225 19.94C15.1867 19.89 15.9126 19.7217 16.55 19.475C17.2067 19.22 17.7659 18.8767 18.3217 18.3217C18.8767 17.7659 19.2209 17.2091 19.475 16.55C19.7217 15.9126 19.8909 15.1867 19.94 14.1225C19.99 13.0558 20 12.7167 20 10C20 7.28333 19.9874 6.94417 19.94 5.8775C19.89 4.81333 19.7217 4.08667 19.475 3.45C19.22 2.7925 18.8767 2.23417 18.3217 1.67833C17.7659 1.1225 17.2091 0.779167 16.55 0.525C15.9126 0.2775 15.1867 0.109167 14.1225 0.06C13.0558 0.01 12.7167 0 10 0ZM15.3384 5.86246C16 5.86246 16.5384 5.32496 16.5384 4.66246C16.5384 4.00079 15.9991 3.46246 15.3384 3.46329C14.6767 3.46329 14.1384 4.00079 14.1384 4.66246C14.1384 5.32413 14.6759 5.86246 15.3384 5.86246ZM4.86503 9.99996C4.86503 7.16496 7.16253 4.86496 10 4.86496C12.835 4.86496 15.135 7.16246 15.135 9.99996C15.135 12.835 12.8375 15.135 10 15.135C7.16503 15.135 4.86503 12.8375 4.86503 9.99996ZM10 13.3334C8.15837 13.3334 6.6667 11.8417 6.6667 10.0001C6.6667 8.15839 8.15837 6.66671 10 6.66671C11.8417 6.66671 13.3334 8.15839 13.3334 10.0001C13.3334 11.8417 11.8417 13.3334 10 13.3334Z" fill="white"/>
</svg>
