<svg width="51" height="50" viewBox="0 0 51 50" fill="none" xmlns="http://www.w3.org/2000/svg">
<path fill-rule="evenodd" clip-rule="evenodd" d="M21.1076 0.141317C19.7502 0.522132 18.5521 1.4959 17.9431 2.71306C17.497 3.60479 17.3481 4.33311 17.411 5.31606C17.5677 7.76552 19.4448 10.071 23.4682 12.7559L25.0095 13.7844L26.3983 12.8592C30.0008 10.4591 31.908 8.38348 32.4767 6.24392C32.6622 5.54578 32.6603 4.47952 32.4722 3.75744C31.9997 1.94323 30.4552 0.462455 28.6429 0.0857428C27.7889 -0.0917233 26.6338 0.0131741 25.8784 0.336754C25.092 0.673617 24.9137 0.673324 24.1244 0.333824C23.3327 -0.00665287 21.9497 -0.0949464 21.1076 0.141317ZM23.1107 3.11019C23.5104 3.29166 24.0889 3.80579 24.6883 4.51214L25.0007 4.88016L25.3664 4.4633C26.3232 3.37253 26.9602 2.92999 27.5804 2.9253C28.8108 2.91592 29.8421 4.09118 29.6513 5.2852C29.4553 6.51076 28.0278 8.12631 25.6627 9.7992L25.0035 10.2656L24.3442 9.7992C21.9547 8.10903 20.5213 6.47559 20.3535 5.2515C20.2654 4.60844 20.4603 4.04274 20.9329 3.57021C21.5683 2.93467 22.3573 2.76805 23.1107 3.11019ZM12.1572 10.3444C9.7454 10.6834 7.61082 11.9188 6.18943 13.7983C5.60517 14.5708 4.94209 15.9444 4.6734 16.9388C4.50609 17.5579 4.46126 18.0041 4.45716 19.0875C4.45111 20.6853 4.6484 21.6073 5.27222 22.8966C5.76193 23.9087 6.17976 24.485 7.08536 25.3972L7.82247 26.1397L7.10987 26.5071C5.93012 27.1156 4.98761 27.8188 3.90113 28.9014C2.318 30.4788 1.26961 32.1886 0.603892 34.2784C0.0357472 36.062 0 36.6163 0 43.6395V50H25.0035H50.0069L50.0064 45.0921C50.0058 39.7844 49.9609 39.1463 49.4693 37.4494C49.1515 36.3523 48.4086 34.7806 47.719 33.7464C46.6158 32.0918 44.7471 30.4146 42.9913 29.503L42.1776 29.0806L42.8472 28.4304C44.0859 27.2272 44.8903 25.8616 45.3339 24.2086C45.6416 23.0622 45.6421 21.0135 45.335 19.8689C44.778 17.7928 43.4089 15.884 41.6073 14.6724C38.7872 12.7756 34.7581 12.7756 31.938 14.6724C30.1368 15.8839 28.7683 17.7915 28.21 19.8689C27.9118 20.9786 27.9096 23.1522 28.2057 24.2345C28.6456 25.8427 29.4809 27.248 30.7023 28.4343L31.3758 29.0885L30.641 29.4521L29.906 29.8158L29.6067 29.564C29.0376 29.085 28.1635 28.6181 27.2446 28.3023C26.3797 28.0051 26.2395 27.9853 25.0035 27.9876C23.8589 27.9896 23.5869 28.0225 22.9416 28.2366L22.1981 28.4832L21.6719 28.0459C20.9487 27.4448 20.2018 26.9479 19.3604 26.5078L18.6497 26.1359L19.385 25.3953C20.2888 24.4849 20.7068 23.9082 21.1963 22.8966C21.8201 21.6073 22.0174 20.6853 22.0114 19.0875C22.0053 17.469 21.8218 16.6491 21.1588 15.2784C19.7347 12.3338 16.9363 10.4841 13.6412 10.3091C13.1488 10.283 12.4809 10.2989 12.1572 10.3444ZM14.6767 13.4295C16.6035 13.9287 18.1954 15.4282 18.8172 17.3294C19.1386 18.3122 19.1774 19.7344 18.9077 20.6502C18.2926 22.7387 16.7094 24.2621 14.591 24.8039C13.6367 25.048 12.8319 25.048 11.8775 24.8039C9.75907 24.2621 8.17594 22.7387 7.56082 20.6502C7.29115 19.7344 7.32992 18.3122 7.65135 17.3294C8.26248 15.461 9.76161 14.0184 11.6715 13.461C12.4288 13.2401 13.8868 13.2248 14.6767 13.4295ZM38.0132 16.3127C38.8435 16.4835 40.0647 17.1214 40.7164 17.7248C41.4859 18.4372 41.9704 19.1849 42.3243 20.2064C43.0038 22.1674 42.5392 24.4004 41.1203 25.9924C38.9254 28.4549 35.0087 28.56 32.669 26.2193C31.483 25.0326 30.9265 23.6904 30.927 22.0176C30.9273 21.1856 30.9706 20.9172 31.2188 20.2064C31.5754 19.1852 32.0609 18.4359 32.8231 17.7302C33.4546 17.1455 34.5653 16.5445 35.3777 16.3478C36.0266 16.1907 37.3353 16.1732 38.0132 16.3127ZM15.2894 28.1614C16.7092 28.46 18.8198 29.4225 19.4711 30.0682C19.6476 30.2433 19.6406 30.2625 19.2113 30.7895C18.6307 31.5023 18.1166 32.567 17.8619 33.584C17.6903 34.2689 17.6635 34.6041 17.7021 35.5862C17.7785 37.5364 18.3484 38.9025 19.6703 40.3041C20.0408 40.697 20.3265 41.0302 20.3052 41.0448C18.3508 42.3768 17.0784 44.1147 16.4845 46.2634L16.262 47.0684L9.59606 47.0691L2.93009 47.0699L2.93068 42.3573C2.93127 37.25 2.98733 36.4775 3.462 35.0298C3.96373 33.4997 4.69284 32.3154 5.90141 31.0676C7.60272 29.3108 9.54498 28.3686 12.2576 27.984C12.7877 27.9088 14.5899 28.0142 15.2894 28.1614ZM25.9098 31.0004C28.0479 31.4535 29.526 33.4072 29.3742 35.5794C29.2105 37.9228 27.3558 39.654 25.0035 39.6591C22.6491 39.6643 20.7973 37.9358 20.6327 35.5794C20.4826 33.4314 21.9558 31.46 24.0513 31.0048C24.8464 30.8321 25.1125 30.8314 25.9098 31.0004ZM37.9447 30.965C41.7635 31.433 45.0356 33.9729 46.3592 37.4965C46.9765 39.1401 47.0001 39.3409 47.0487 43.3829L47.0931 47.0699L40.419 47.0691L33.7449 47.0684L33.5224 46.2634C33.2696 45.3488 32.7783 44.256 32.3211 43.5916C31.8756 42.9441 30.8233 41.8532 30.2402 41.4344C29.9654 41.2369 29.7231 41.0625 29.7018 41.0468C29.6805 41.0312 29.9662 40.697 30.3366 40.3041C31.1415 39.4507 31.6546 38.6055 32.0103 37.5471C32.2489 36.8372 32.273 36.6317 32.2732 35.3007C32.2734 33.9718 32.2492 33.7637 32.0129 33.0614C31.8697 32.6357 31.7775 32.2469 31.8079 32.1976C31.9027 32.0443 33.1195 31.5365 33.9891 31.2874C35.3581 30.8954 36.5703 30.7966 37.9447 30.965ZM26.3459 42.8215C27.5524 43.1059 28.7339 43.8443 29.5493 44.8235C29.9091 45.2556 30.6683 46.6933 30.6683 46.9426C30.6683 47.0458 29.591 47.0699 24.9929 47.0699H19.3174L19.3835 46.8071C19.4951 46.3623 20.0164 45.3867 20.4268 44.8547C21.7238 43.1729 24.2119 42.3183 26.3459 42.8215Z" fill="url(#paint0_linear_1_181)"/>
<defs>
<linearGradient id="paint0_linear_1_181" x1="25.0035" y1="0" x2="25.0035" y2="50" gradientUnits="userSpaceOnUse">
<stop stop-color="#2F82FE"/>
<stop offset="1" stop-color="#1551AA"/>
</linearGradient>
</defs>
</svg>
