<svg width="61" height="50" viewBox="0 0 61 50" fill="none" xmlns="http://www.w3.org/2000/svg">
<path fill-rule="evenodd" clip-rule="evenodd" d="M28.0441 0.156749C26.0845 0.589206 24.2073 1.62557 22.7887 3.05828C21.5049 4.35483 20.6863 5.74789 20.1173 7.60422C19.8334 8.53002 19.7985 8.8335 19.7941 10.4122C19.7885 12.3558 19.9646 13.2428 20.6604 14.7773C21.718 17.11 23.8911 19.2091 26.2363 20.1634C27.3083 20.5998 29.1481 20.9729 30.227 20.9729C31.3058 20.9729 33.1456 20.5998 34.2176 20.1634C36.5629 19.2091 38.736 17.11 39.7936 14.7773C40.4894 13.2428 40.6654 12.3558 40.6599 10.4122C40.6554 8.82489 40.6214 8.53261 40.33 7.58026C39.2402 4.01795 36.5521 1.334 33.058 0.319465C31.8739 -0.0243764 29.2507 -0.109452 28.0441 0.156749ZM32.4831 3.89051C33.6398 4.31459 34.3274 4.7559 35.1828 5.62294C36.4151 6.87193 37.1847 8.71315 37.1847 10.4122C37.1847 12.2853 36.2021 14.4409 34.792 15.6614C34.1693 16.2004 33.0151 16.8469 32.2347 17.094C31.1632 17.4331 29.2908 17.4331 28.2193 17.094C27.4389 16.8469 26.2847 16.2004 25.6619 15.6614C25.0472 15.1292 24.2735 14.0854 23.9371 13.3345C23.0414 11.3344 23.0771 9.23599 24.0397 7.32739C24.9871 5.44866 26.7748 4.07742 28.87 3.62219C29.7352 3.43422 31.6205 3.57428 32.4831 3.89051ZM10.8756 9.75777C7.63326 10.196 4.99616 12.5257 4.19142 15.663C3.95071 16.6013 3.92569 18.4329 4.14151 19.3209C4.506 20.8205 5.52089 22.5082 6.65566 23.5013C7.37662 24.1322 8.75599 24.8749 9.71637 25.149C13.3072 26.1743 17.1901 24.4232 18.8461 21.0319C19.6845 19.3151 19.8968 17.7829 19.5378 16.0416C19.0612 13.7293 17.5515 11.7071 15.4733 10.5972C14.2267 9.93134 12.2548 9.57145 10.8756 9.75777ZM47.6816 9.75789C44.2866 10.211 41.6046 12.702 40.9162 16.0416C40.5572 17.7829 40.7695 19.3151 41.6079 21.0319C42.7391 23.3485 44.9137 24.9515 47.4643 25.3489C50.2903 25.7892 53.2979 24.5294 54.951 22.2128C56.0201 20.7146 56.4733 19.3189 56.4647 17.551C56.4505 14.6145 54.9651 12.1217 52.3513 10.6485C51.0969 9.94137 49.1248 9.56532 47.6816 9.75789ZM13.3011 13.5517C15.6812 14.4422 16.7834 17.2562 15.6384 19.5191C15.2091 20.3678 14.2484 21.2394 13.3826 21.5659C12.5479 21.8806 11.2653 21.9095 10.4441 21.632C7.71715 20.7108 6.68044 17.2352 8.44319 14.9241C9.5284 13.5013 11.6014 12.9157 13.3011 13.5517ZM50.4275 13.679C52.8591 14.8121 53.6454 17.9346 52.0527 20.1332C51.2707 21.2126 50.015 21.8262 48.594 21.8233C47.4678 21.821 46.5792 21.48 45.7687 20.7393C43.4261 18.5984 44.1059 14.8254 47.0571 13.5877C48.022 13.183 49.4458 13.2216 50.4275 13.679ZM22.7978 22.1642C21.8117 22.4186 20.5522 23.0207 19.7044 23.6431C18.9878 24.1692 17.9223 25.341 17.4602 26.1111L17.1031 26.7065L16.2017 26.5482C14.8984 26.3193 7.52801 26.4058 6.68669 26.6599C5.07273 27.1474 3.87778 27.8416 2.70761 28.9711C1.36741 30.2651 0.583205 31.6875 0.207622 33.5059C-0.0656582 34.8284 -0.070614 45.001 0.201368 46.0453C0.44916 46.9968 0.956427 47.8411 1.70571 48.5498C2.39587 49.2026 2.79776 49.4409 3.77442 49.777C4.4024 49.993 5.23002 50 30.227 50C55.224 50 56.0516 49.993 56.6796 49.777C57.6562 49.4409 58.0581 49.2026 58.7483 48.5498C59.4976 47.8411 60.0048 46.9968 60.2526 46.0453C60.5246 45.001 60.5196 34.8284 60.2464 33.5059C59.8708 31.6875 59.0866 30.2651 57.7464 28.9711C56.5762 27.8416 55.3812 27.1474 53.7673 26.6599C52.926 26.4058 45.5556 26.3193 44.2523 26.5482L43.3509 26.7065L42.9937 26.1111C42.5317 25.341 41.4662 24.1692 40.7496 23.6431C39.879 23.0041 38.6408 22.42 37.6018 22.1583C36.7101 21.9336 36.2989 21.921 30.168 21.9288C24.1622 21.9364 23.6126 21.954 22.7978 22.1642ZM36.7546 25.6331C37.1272 25.7302 37.6537 25.9227 37.9246 26.0609C38.6046 26.4078 39.6849 27.4661 40.0572 28.1501C40.7283 29.3834 40.7287 29.3881 40.7287 38.2841V46.4601H30.227H19.7253V38.2841C19.7253 29.524 19.7307 29.4345 20.3294 28.2608C20.6771 27.5795 21.7351 26.5003 22.4222 26.1264C23.5928 25.4893 23.7845 25.4729 30.1727 25.4645C35.0507 25.458 36.195 25.4874 36.7546 25.6331ZM15.9789 30.1073C16.1727 30.1961 16.1854 30.7036 16.1854 38.331V46.4601H10.5492C4.13561 46.4601 4.32523 46.4869 3.82528 45.5119C3.56214 44.9987 3.55978 44.95 3.56179 39.9748C3.56344 36.0676 3.60144 34.7782 3.73336 34.1554C4.18823 32.0087 5.87806 30.4238 8.10265 30.0571C8.84166 29.9353 15.6987 29.9791 15.9789 30.1073ZM53.2488 30.2628C54.5476 30.7406 55.6175 31.6401 56.2338 32.7725C56.8324 33.8724 56.8899 34.5014 56.8922 39.9748C56.8942 44.95 56.8918 44.9987 56.6287 45.5119C56.1287 46.4869 56.3184 46.4601 49.9048 46.4601H44.2686V38.3206V30.1811L44.5341 30.1234C44.6801 30.0916 44.9323 30.0422 45.0945 30.0136C45.2568 29.985 47.009 29.9746 48.9884 29.9905C52.2888 30.0172 52.6422 30.0397 53.2488 30.2628Z" fill="url(#paint0_linear_1_177)"/>
<defs>
<linearGradient id="paint0_linear_1_177" x1="30.227" y1="0" x2="30.227" y2="50" gradientUnits="userSpaceOnUse">
<stop stop-color="#2F82FE"/>
<stop offset="1" stop-color="#1551AA"/>
</linearGradient>
</defs>
</svg>
