<svg width="39" height="50" viewBox="0 0 39 50" fill="none" xmlns="http://www.w3.org/2000/svg">
<path fill-rule="evenodd" clip-rule="evenodd" d="M17.7381 0.0686371C13.9321 0.665803 10.6088 2.92528 8.68983 6.22039C7.64276 8.01824 7.13687 9.79879 7.06192 11.9498C6.96322 14.7817 7.6197 17.1305 9.15576 19.4411C9.76104 20.3516 11.2429 21.8856 12.104 22.4933C12.4828 22.7606 12.7947 23.0043 12.7971 23.0347C12.7994 23.065 12.5484 23.193 12.2394 23.3189C6.38706 25.7034 1.96896 30.8162 0.533941 36.8649C0.069088 38.8245 0 39.8112 0 44.4938C0 48.7483 0.00478827 48.8569 0.206971 49.2167C0.320814 49.4193 0.579576 49.6781 0.782149 49.7919L1.15036 49.9989H19.4936C39.9378 49.9989 38.2555 50.0576 38.7519 49.327L38.9902 48.9763V44.4769C38.9902 41.9211 38.9458 39.6198 38.8875 39.1494C38.4296 35.4592 36.9638 32.0067 34.6303 29.1225C32.7278 26.7709 29.955 24.6654 27.2742 23.5364C26.7041 23.2964 26.2257 23.0901 26.2108 23.0778C26.1959 23.0656 26.5258 22.7991 26.9437 22.4857C30.1499 20.0803 31.9673 16.4583 31.967 12.4745C31.9668 10.3143 31.5561 8.60329 30.5855 6.71984C28.8932 3.43567 25.856 1.09597 22.1824 0.246389C21.22 0.0238814 18.673 -0.0780404 17.7381 0.0686371ZM20.7787 3.10137C24.5028 3.61938 27.4643 6.18922 28.5964 9.88489C28.8457 10.6986 28.8658 10.8887 28.865 12.4256C28.8638 14.3954 28.7164 15.074 27.9525 16.6276C26.6632 19.2488 24.2709 21.0939 21.3518 21.7185C20.438 21.914 18.6178 21.9081 17.6422 21.7066C15.6515 21.2954 14.0773 20.4108 12.6356 18.893C8.84052 14.8977 9.34524 8.33583 13.7027 5.01991C15.8101 3.41613 18.2622 2.75134 20.7787 3.10137ZM21.5472 25.0902C23.4878 25.3265 25.8758 26.1122 27.5428 27.0631C28.9424 27.8613 29.892 28.5887 31.0781 29.7709C33.143 31.8288 34.4812 34.0467 35.2796 36.7341C35.847 38.6441 35.8911 39.0771 35.9357 43.1829L35.9768 46.9696H19.503H3.02931V43.8387C3.02931 39.6578 3.20443 38.2025 3.97319 35.994C5.96921 30.2594 11.0508 26.0588 17.101 25.1424C18.2349 24.9707 20.36 24.9457 21.5472 25.0902Z" fill="url(#paint0_linear_1_189)"/>
<defs>
<linearGradient id="paint0_linear_1_189" x1="19.4951" y1="0" x2="19.4951" y2="50" gradientUnits="userSpaceOnUse">
<stop stop-color="#2F82FE"/>
<stop offset="1" stop-color="#1551AA"/>
</linearGradient>
</defs>
</svg>
