<svg width="20" height="14" viewBox="0 0 20 14" fill="none" xmlns="http://www.w3.org/2000/svg">
<path fill-rule="evenodd" clip-rule="evenodd" d="M12.8341 0.00405156H12.8471L12.8458 0L12.8341 0.00405156ZM12.7898 0.0195914L12.8341 0.00405156H12.8058L12.7898 0.0195914ZM12.7821 0.027035L12.7898 0.0195914L12.7686 0.027008L12.7821 0.027035ZM12.7821 0.027035L12.5276 0.274132C15.3829 1.08437 16.7644 2.3497 16.7644 2.3497C14.9242 1.44763 13.2659 0.996598 11.6074 0.814293C10.4091 0.631989 9.21074 0.727867 8.19835 0.814293H7.92287C7.27548 0.814293 5.89807 1.08437 4.05234 1.80684C3.40909 2.08097 3.03994 2.26058 3.03994 2.26058C3.03994 2.26058 4.42011 0.907471 7.46143 0.185006L7.27548 0.00270126C7.27548 0.00270126 4.97246 -0.0837244 2.48622 1.71771C2.48622 1.71771 0 5.96338 0 11.1976C0 11.1976 1.37741 13.5472 5.15564 13.6363C5.15564 13.6363 5.70661 12.9166 6.26447 12.2832C4.14326 11.6512 3.3168 10.3873 3.3168 10.3873C3.3168 10.3873 3.50138 10.4764 3.77823 10.6574H3.86088C3.89977 10.6574 3.91913 10.6753 3.93964 10.6943C3.94093 10.6955 3.94222 10.6967 3.94352 10.6979V10.706C3.96557 10.7276 3.98484 10.7465 4.02617 10.7465C4.06622 10.7627 4.10627 10.7788 4.14627 10.795C4.56018 10.962 4.96803 11.1266 5.30717 11.2867C5.94903 11.5594 6.7741 11.8309 7.7865 12.0104C9.06749 12.1928 10.5358 12.2806 12.208 12.0104L12.2614 11.9987C13.0701 11.8204 13.8787 11.6421 14.6873 11.288C14.8351 11.2137 14.9923 11.1394 15.1577 11.0612C15.5932 10.8553 16.0854 10.6226 16.6116 10.2928C16.6116 10.2928 15.7851 11.5568 13.5743 12.1888C14.0289 12.818 14.6694 13.5391 14.6694 13.5391C17.7664 13.4728 19.3116 11.8831 19.8142 11.3661C19.925 11.2521 19.9851 11.1903 20 11.2083C20 5.98228 17.5 1.72851 17.5 1.72851C15.2738 0.107976 13.189 0.0286449 12.7821 0.027035ZM6.82096 5.96335C7.78515 5.96335 8.56476 6.77359 8.56476 7.76613C8.56476 8.76543 7.77963 9.57568 6.81544 9.57568C5.85126 9.57568 5.06613 8.76543 5.06613 7.77424C5.06613 6.77494 5.85126 5.9674 6.81544 5.9674L6.82096 5.96335ZM13.0786 5.96335C14.0469 5.96335 14.8279 6.77359 14.8279 7.76613C14.8279 8.76543 14.0427 9.57568 13.0786 9.57568C12.1143 9.57568 11.3292 8.76543 11.3292 7.77424C11.332 6.77494 12.1184 5.9674 13.0786 5.9674V5.96335Z" fill="white"/>
</svg>
