<svg width="19" height="18" viewBox="0 0 19 18" fill="none" xmlns="http://www.w3.org/2000/svg">
<path d="M11.7316 3.90746L12.7891 6.02246C12.9316 6.31496 13.3141 6.59246 13.6366 6.65246L15.5491 6.96746C16.7716 7.16996 17.0566 8.05496 16.1791 8.93996L14.6866 10.4325C14.4391 10.68 14.2966 11.1675 14.3791 11.52L14.8066 13.365C15.1441 14.82 14.3641 15.39 13.0816 14.625L11.2891 13.56C10.9666 13.365 10.4266 13.365 10.1041 13.56L8.3116 14.625C7.0291 15.3825 6.2491 14.82 6.5866 13.365L7.0141 11.52C7.0816 11.16 6.9391 10.6725 6.6916 10.425L5.1991 8.93246C4.3216 8.05496 4.6066 7.16996 5.8291 6.95996L7.7416 6.64496C8.0641 6.59246 8.4466 6.30746 8.5891 6.01496L9.6466 3.89996C10.2241 2.75996 11.1541 2.75996 11.7316 3.90746Z" fill="#FFBF00"/>
<path d="M6.18909 4.3125H1.68909C1.38159 4.3125 1.12659 4.0575 1.12659 3.75C1.12659 3.4425 1.38159 3.1875 1.68909 3.1875H6.18909C6.49659 3.1875 6.75159 3.4425 6.75159 3.75C6.75159 4.0575 6.49659 4.3125 6.18909 4.3125Z" fill="#FFBF00"/>
<path d="M3.93909 14.8125H1.68909C1.38159 14.8125 1.12659 14.5575 1.12659 14.25C1.12659 13.9425 1.38159 13.6875 1.68909 13.6875H3.93909C4.24659 13.6875 4.50159 13.9425 4.50159 14.25C4.50159 14.5575 4.24659 14.8125 3.93909 14.8125Z" fill="#FFBF00"/>
<path d="M2.43909 9.5625H1.68909C1.38159 9.5625 1.12659 9.3075 1.12659 9C1.12659 8.6925 1.38159 8.4375 1.68909 8.4375H2.43909C2.74659 8.4375 3.00159 8.6925 3.00159 9C3.00159 9.3075 2.74659 9.5625 2.43909 9.5625Z" fill="#FFBF00"/>
</svg>
